{"title":"G.I.Joe.Retaliation.2013 BRRip XViD juggs","uid":8668937,"size":739957911,"categoryP":"video","categoryS":"movies","magnet":"?xt=urn:btih:6684b19fb6cf7c59007e1c61ff523e6e11822466&amp;dn=G.I.Joe.Retaliation.2013+BRRip+XViD+juggs&amp;tr=udp%3A%2F%2Ftracker.openbittorrent.com%3A80&amp;tr=udp%3A%2F%2Fopen.demonii.com%3A1337&amp;tr=udp%3A%2F%2Ftracker.coppersurfer.tk%3A6969&amp;tr=udp%3A%2F%2Fexodus.desync.com%3A6969","seeders":7,"leechers":1,"uploader":"juggs99","files":3,"time":1373463385,"description":"Source : VeDeTT(Thanks)\n\n &lt;a href=&quot;\nhttp://www.imdb.com/title/tt1583421/&quot; rel=&quot;nofollow&quot; target=&quot;_NEW&quot;&gt;\nhttp://www.imdb.com/title/tt1583421/&lt;/a&gt;\n\nFormat                                   : AVI\nFormat/Info                              : Audio Video Interleave\nFile size                                : 697 MiB\nDuration                                 : 2h 3mn\nOverall bit rate                         : 792 Kbps\nWriting library                          : VirtualDub build 32842/release\n\nVideo\nID                                       : 0\nFormat                                   : MPEG-4 Visual\nFormat profile                           : Advanced Simple@L5\nFormat settings, BVOP                    : 2\nFormat settings, QPel                    : No\nFormat settings, GMC                     : No warppoints\nFormat settings, Matrix                  : Default (H.263)\nMuxing mode                              : Packed bitstream\nCodec ID                                 : XVID\nCodec ID/Hint                            : XviD\nDuration                                 : 2h 3mn\nBit rate                                 : 671 Kbps\nWidth                                    : 640 pixels\nHeight                                   : 272 pixels\nDisplay aspect ratio                     : 2.35:1\nFrame rate                               : 23.976 fps\nColor space                              : YUV\nChroma subsampling                       : 4:2:0\nBit depth                                : 8 bits\nScan type                                : Progressive\nCompression mode                         : Lossy\nBits/(Pixel*Frame)                       : 0.161\nStream size                              : 590 MiB (85%)\nWriting library                          : XviD 64\n\nAudio\nID                                       : 1\nFormat                                   : MPEG Audio\nFormat version                           : Version 1\nFormat profile                           : Layer 3\nMode                                     : Joint stereo\nCodec ID                                 : 55\nCodec ID/Hint                            : MP3\nDuration                                 : 2h 3mn\nBit rate mode                            : Constant\nBit rate                                 : 112 Kbps\nChannel(s)                               : 2 channels\nSampling rate                            : 48.0 KHz\nCompression mode                         : Lossy\nStream size                              : 98.5 MiB (14%)\nAlignment                                : Split accross interleaves\nInterleave, duration                     : 42 ms (1.00 video frame)\nInterleave, preload duration             : 500 ms\nWriting library                          : LAME3.98\n\n &lt;a href=&quot;\nhttp://img11.imageshack.us/img11/4991/pgz.png&quot; rel=&quot;nofollow&quot; target=&quot;_NEW&quot;&gt;\nhttp://img11.imageshack.us/img11/4991/pgz.png&lt;/a&gt; &lt;a href=&quot;\nhttp://img59.imageshack.us/img59/9326/52p.png&quot; rel=&quot;nofollow&quot; target=&quot;_NEW&quot;&gt;\nhttp://img59.imageshack.us/img59/9326/52p.png&lt;/a&gt; &lt;a href=&quot;\nhttp://img51.imageshack.us/img51/1987/n6oi.png&quot; rel=&quot;nofollow&quot; target=&quot;_NEW&quot;&gt;\nhttp://img51.imageshack.us/img51/1987/n6oi.png&lt;/a&gt;","torrent":{"xt":"urn:btih:6684b19fb6cf7c59007e1c61ff523e6e11822466","amp;dn":"G.I.Joe.Retaliation.2013+BRRip+XViD+juggs","amp;tr":["udp%3A%2F%2Ftracker.openbittorrent.com%3A80","udp%3A%2F%2Fopen.demonii.com%3A1337","udp%3A%2F%2Ftracker.coppersurfer.tk%3A6969","udp%3A%2F%2Fexodus.desync.com%3A6969"],"infoHash":"6684b19fb6cf7c59007e1c61ff523e6e11822466","infoHashBuffer":{"type":"Buffer","data":[102,132,177,159,182,207,124,89,0,126,28,97,255,82,62,110,17,130,36,102]},"announce":[],"urlList":[]}}